<?xml version="1.0" encoding="UTF-8"?>
<svg width="1696px" height="366px" viewBox="0 0 1696 366" version="1.1" xmlns="http://www.w3.org/2000/svg" xmlns:xlink="http://www.w3.org/1999/xlink">
    <!-- Generator: Sketch 43.2 (39069) - http://www.bohemiancoding.com/sketch -->
    <title>Group</title>
    <desc>Created with Sketch.</desc>
    <defs></defs>
    <g id="Page-1" stroke="none" stroke-width="1" fill="none" fill-rule="evenodd">
        <g id="Group" transform="translate(7.000000, 0.000000)">
            <g id="foodie-logo-dark" transform="translate(505.000000, 0.000000)" fill-rule="nonzero" fill="#FFFFFF">
                <path d="M184.27832,211.673828 C180.313457,211.537109 176.177756,211.297853 171.871094,210.956055 C167.564432,210.614256 162.471709,210.375001 156.592773,210.238281 C143.741147,209.964842 129.795974,210.511712 114.756836,211.878906 C111.33885,223.636778 105.699258,238.094641 97.837891,255.25293 C89.976523,272.411219 82.217812,286.937441 74.561523,298.832031 C58.155191,324.261846 41.475671,339.984345 24.522461,346 C22.061511,346.957036 19.566419,347.435547 17.037109,347.435547 C14.5078,347.435547 12.217784,346.991215 10.166992,346.102539 C8.116201,345.213863 6.407233,344.085944 5.040039,342.71875 C2.168931,340.121081 0.733398,337.250016 0.733398,334.105469 C0.733398,330.960922 1.758779,328.636726 3.80957,327.132812 C23.22373,313.050711 43.184468,277.57255 63.692383,220.697266 L59.180664,221.927734 C57.67675,222.337893 56.377935,222.748045 55.28418,223.158203 C54.190424,223.568361 52.925788,223.773438 51.490234,223.773438 C50.05468,223.773438 48.48243,223.329106 46.773438,222.44043 C45.064445,221.551753 43.526374,220.492194 42.15918,219.261719 C39.151352,216.52733 37.647461,213.861341 37.647461,211.263672 C37.647461,208.666003 38.843738,206.239269 41.236328,203.983398 C43.628918,201.727528 46.602521,199.574229 50.157227,197.523438 C56.719759,193.695293 64.991161,190.140641 74.97168,186.859375 L86.045898,152.40625 C99.034245,112.074017 111.475526,84.1153123 123.370117,68.5292969 C112.159124,67.5722608 103.887722,67.09375 98.555664,67.09375 C82.422771,67.09375 70.801793,69.3495868 63.692383,73.8613281 C56.719692,78.3730694 51.832045,83.2607159 49.029297,88.5244141 C46.226548,93.7881123 44.756837,97.4453022 44.620117,99.4960938 C44.209959,103.324238 42.979502,105.750971 40.928711,106.776367 C38.877919,107.801763 36.382827,108.314453 33.443359,108.314453 C30.503892,108.314453 27.46193,107.254893 24.317383,105.135742 C21.172836,103.016591 18.575206,100.316423 16.524414,97.0351562 C12.149392,90.335904 10.440425,82.7822686 11.397461,74.3740234 C12.354497,65.9657783 15.123024,58.719757 19.703125,52.6357422 C24.283226,46.5517274 29.717742,41.5957223 36.006836,37.7675781 C47.627988,30.6581676 59.898373,27.1035156 72.818359,27.1035156 C85.738346,27.1035156 97.974552,27.7529232 109.527344,29.0517578 C121.080136,30.3505924 132.598575,31.8203043 144.083008,33.4609375 C174.571442,37.5625205 193.98531,39.6132812 202.325195,39.6132812 C210.665081,39.6132812 216.851542,39.1347704 220.884766,38.1777344 C224.917989,37.2206983 228.370103,35.7851658 231.241211,33.8710938 C234.112319,31.9570217 236.1289,30.6923859 237.291016,30.0771484 C238.453131,29.461911 240.332995,29.1542969 242.930664,29.1542969 C247.032247,29.1542969 248.809573,32.2646173 248.262695,38.4853516 C247.715818,44.7060858 246.211926,50.0380637 243.750977,54.4814453 C241.290027,58.9248269 238.077168,62.5820169 234.112305,65.453125 C226.045858,71.3320606 215.792054,74.2714844 203.350586,74.2714844 C190.909117,74.2714844 175.801847,73.4511801 158.02832,71.8105469 C153.516579,80.9707489 149.209981,93.0018786 145.108398,107.904297 L126.241211,175.580078 C139.092838,173.529287 148.90231,172.503906 155.669922,172.503906 C162.437534,172.503906 168.008767,173.187493 172.383789,174.554688 C176.758811,175.921882 180.655256,177.835925 184.073242,180.296875 C192.002969,185.628933 195.899415,192.191367 195.762695,199.984375 C195.625976,207.777383 191.797889,211.673828 184.27832,211.673828 Z M226.114258,311.239258 C222.832991,302.831013 221.124024,292.884823 220.987305,281.400391 C220.850585,269.915958 222.251938,258.294981 225.191406,246.537109 C228.130874,234.779238 232.300754,223.431695 237.701172,212.494141 C243.10159,201.556586 249.595665,191.302782 257.183594,181.732422 C264.771522,172.162062 273.145462,163.822301 282.305664,156.712891 C302.266701,141.400314 322.979385,133.744141 344.444336,133.744141 C372.608539,133.744141 391.680614,146.117064 401.661133,170.863281 C408.770543,188.773527 409.180696,210.443232 402.891602,235.873047 C397.149385,259.25207 386.622147,280.716699 371.30957,300.267578 C356.133713,319.818457 338.223736,333.695271 317.579102,341.898438 C307.188425,346.000021 296.9688,348.050781 286.919922,348.050781 C276.871044,348.050781 267.916055,346.751966 260.054688,344.154297 C252.19332,341.556628 245.39163,337.523465 239.649414,332.054688 C233.907198,326.58591 229.395524,319.647503 226.114258,311.239258 Z M269.078125,263.763672 C266.685535,274.427788 265.557617,284.510695 265.694336,294.012695 C265.831055,303.514696 267.300767,310.965793 270.103516,316.366211 C272.906264,321.766629 277.452117,324.466797 283.741211,324.466797 C290.030305,324.466797 296.216766,322.313498 302.300781,318.006836 C308.384796,313.700174 314.297823,307.992223 320.040039,300.882812 C325.782255,293.773402 331.182592,285.570359 336.241211,276.273438 C341.29983,266.976516 345.743145,257.269582 349.571289,247.152344 C357.911175,225.140515 361.944337,205.589929 361.670898,188.5 C361.670898,173.460862 358.594757,163.890646 352.442383,159.789062 C349.981433,158.148429 346.529319,157.328125 342.085938,157.328125 C337.642556,157.328125 332.549833,159.344706 326.807617,163.37793 C321.065401,167.411153 315.323271,172.845669 309.581055,179.681641 C303.838838,186.517612 298.301784,194.515579 292.969727,203.675781 C287.637669,212.835983 282.920919,222.474559 278.819336,232.591797 C274.717753,242.709035 271.470715,253.099556 269.078125,263.763672 Z M442.061523,311.239258 C438.780257,302.831013 437.07129,292.884823 436.93457,281.400391 C436.797851,269.915958 438.199204,258.294981 441.138672,246.537109 C444.07814,234.779238 448.24802,223.431695 453.648438,212.494141 C459.048855,201.556586 465.542931,191.302782 473.130859,181.732422 C480.718788,172.162062 489.092728,163.822301 498.25293,156.712891 C518.213967,141.400314 538.92665,133.744141 560.3916,133.744141 C588.5558,133.744141 607.62788,146.117064 617.6084,170.863281 C624.71781,188.773527 625.12796,210.443232 618.83887,235.873047 C613.09665,259.25207 602.56941,280.716699 587.25684,300.267578 C572.08098,319.818457 554.171,333.695271 533.526367,341.898438 C523.13569,346.000021 512.916066,348.050781 502.867188,348.050781 C492.818309,348.050781 483.863321,346.751966 476.001953,344.154297 C468.140586,341.556628 461.338896,337.523465 455.59668,332.054688 C449.854463,326.58591 445.34279,319.647503 442.061523,311.239258 Z M485.025391,263.763672 C482.632801,274.427788 481.504882,284.510695 481.641602,294.012695 C481.778321,303.514696 483.248033,310.965793 486.050781,316.366211 C488.85353,321.766629 493.399383,324.466797 499.688477,324.466797 C505.977571,324.466797 512.164032,322.313498 518.248047,318.006836 C524.332062,313.700174 530.245088,307.992223 535.987305,300.882812 C541.729521,293.773402 547.12986,285.570359 552.18848,276.273438 C557.2471,266.976516 561.69041,257.269582 565.51855,247.152344 C573.85844,225.140515 577.8916,205.589929 577.61816,188.5 C577.61816,173.460862 574.54202,163.890646 568.38965,159.789062 C565.9287,158.148429 562.47658,157.328125 558.0332,157.328125 C553.58982,157.328125 548.4971,159.344706 542.754883,163.37793 C537.012667,167.411153 531.270537,172.845669 525.52832,179.681641 C519.786104,186.517612 514.24905,194.515579 508.916992,203.675781 C503.584934,212.835983 498.868185,222.474559 494.766602,232.591797 C490.665019,242.709035 487.417981,253.099556 485.025391,263.763672 Z M857.34473,304.574219 C860.21583,304.574219 861.65137,306.07811 861.65137,309.085938 C861.65137,320.843809 855.56744,330.960895 843.39941,339.4375 C835.33297,345.179716 827.71097,348.050781 820.5332,348.050781 C813.35543,348.050781 807.64748,347.230477 803.40918,345.589844 C799.17088,343.949211 795.34279,341.35158 791.9248,337.796875 C784.26852,329.593709 780.44043,318.314525 780.44043,303.958984 C780.44043,301.087876 780.9873,296.507844 782.08105,290.21875 C771.00678,307.308679 761.50492,319.339809 753.5752,326.3125 C737.57902,340.80476 721.92488,348.050781 706.6123,348.050781 C682.41296,348.050781 666.55375,337.113391 659.03418,315.238281 C656.29979,307.171835 654.93262,297.054748 654.93262,284.886719 C654.93262,272.718689 656.7783,260.414125 660.46973,247.972656 C664.16115,235.531188 669.18552,223.705134 675.54297,212.494141 C681.90042,201.283147 689.28316,190.858447 697.69141,181.219727 C706.09965,171.581006 714.9521,163.207067 724.24902,156.097656 C744.21006,141.195238 762.25676,133.744141 778.38965,133.744141 C794.52254,133.744141 807.44233,140.306575 817.14941,153.431641 C840.9386,71.9468582 858.84857,23.8906981 870.87988,9.26171875 C875.9385,3.24606367 881.27048,0.23828125 886.87598,0.23828125 C896.1729,0.23828125 903.21384,2.90427021 907.99902,8.23632812 C909.50294,10.0136808 910.25488,11.7910067 910.25488,13.5683594 C910.25488,15.345712 909.16114,18.6269292 906.97363,23.4121094 C904.78612,28.1972896 901.57326,35.9218217 897.33496,46.5859375 C885.16693,78.7150044 876.62209,102.230394 871.7002,117.132812 C859.12201,155.277534 850.64553,181.527272 846.27051,195.882812 L834.99121,233.822266 C825.28413,267.591966 820.43066,289.056595 820.43066,298.216797 C820.43066,307.376999 823.78024,311.957031 830.47949,311.957031 C836.63187,311.957031 841.55369,311.136727 845.24512,309.496094 L853.03809,305.804688 C854.542,304.984371 855.97753,304.574219 857.34473,304.574219 Z M716.45605,317.289062 C730.53816,317.289062 746.67081,303.548966 764.85449,276.068359 C783.85849,247.630717 797.12008,216.66423 804.63965,183.167969 C804.09277,173.871047 800.19633,167.035178 792.9502,162.660156 C790.48925,161.156242 786.7637,160.404297 781.77344,160.404297 C776.78318,160.404297 770.97269,162.215802 764.3418,165.838867 C757.7109,169.461932 751.28519,174.349579 745.06445,180.501953 C738.84372,186.654328 733.03323,193.86617 727.63281,202.137695 C722.23239,210.409221 717.54982,219.193313 713.58496,228.490234 C704.97164,248.724711 700.66504,268.58291 700.66504,288.06543 C700.66504,307.547949 705.92866,317.289062 716.45605,317.289062 Z M986.9541,93.4462891 C983.12596,95.4287208 979.09279,96.6591773 974.85449,97.1376953 C970.61619,97.6162133 966.61721,96.9668058 962.85742,95.1894531 C959.09764,93.4121005 955.8506,90.8828289 953.11621,87.6015625 C947.23728,80.7655908 944.29785,73.861363 944.29785,66.8886719 C944.29785,59.9159808 945.42577,54.6865409 947.68164,51.2001953 C949.93751,47.7138498 952.7744,44.8769641 956.19238,42.6894531 C962.75492,38.4511507 968.94138,36.3320312 974.75195,36.3320312 C980.56253,36.3320312 985.0742,36.7421834 988.28711,37.5625 C991.50002,38.3828166 994.47362,39.7499904 997.20801,41.6640625 C1003.90726,46.1758038 1007.25684,51.6786785 1007.25684,58.1728516 C1007.25684,64.6670247 1006.33399,70.0673613 1004.48828,74.3740234 C1002.64257,78.6806856 1000.21584,82.4404136 997.20801,85.6533203 C994.20018,88.866227 990.78225,91.4638573 986.9541,93.4462891 Z M955.16699,307.650391 C958.7217,307.650391 960.49902,309.974586 960.49902,314.623047 C960.49902,320.775421 957.69632,327.13278 952.09082,333.695312 C943.88765,343.265673 932.8819,348.050781 919.07324,348.050781 C903.21379,348.050781 892.34476,341.625064 886.46582,328.773438 C884.27831,324.261696 883.18457,318.793001 883.18457,312.367188 C883.18457,305.941374 884.31249,298.797891 886.56836,290.936523 C888.82423,283.075156 891.62694,274.803754 894.97656,266.12207 C898.32619,257.440386 901.98338,248.656294 905.94824,239.769531 L916.81738,213.929688 C924.74711,194.652247 928.71191,181.937531 928.71191,175.785156 C928.71191,169.632782 928.06251,165.56544 926.76367,163.583008 C925.46484,161.600576 924.06348,160.062505 922.55957,158.96875 L918.45801,156.097656 C917.09081,155.14062 916.40723,153.465832 916.40723,151.073242 C916.40723,148.680652 917.33007,146.390636 919.17578,144.203125 C921.02149,142.015614 923.44823,140.101571 926.45605,138.460938 C932.60843,135.316391 939.78609,133.744141 947.98926,133.744141 C968.08701,133.744141 978.13574,139.00776 978.13574,149.535156 C978.13574,161.839905 974.92288,175.887616 968.49707,191.678711 C962.07126,207.469806 956.60256,220.218701 952.09082,229.925781 L939.78613,258.226562 C930.76265,279.007916 926.25098,293.97847 926.25098,303.138672 C926.25098,309.154327 929.25876,312.162109 935.27441,312.162109 C941.15335,312.162109 945.59666,311.410164 948.60449,309.90625 C951.61232,308.402336 953.7998,307.650391 955.16699,307.650391 Z M1008.69238,274.222656 C1009.23926,262.328066 1011.22166,250.946343 1014.63965,240.077148 C1018.05763,229.207953 1022.63767,218.680715 1028.37988,208.495117 C1034.1221,198.309519 1040.85543,188.670944 1048.58008,179.579102 C1056.30473,170.487259 1064.67867,162.523472 1073.70215,155.6875 C1093.25303,141.058521 1113.00869,133.744141 1132.96973,133.744141 C1156.34875,133.744141 1171.93453,143.382716 1179.72754,162.660156 C1182.46193,169.222689 1183.76074,176.981401 1183.62402,185.936523 C1183.4873,194.891646 1181.77834,203.163048 1178.49707,210.750977 C1175.2158,218.338905 1170.66995,225.243133 1164.85938,231.463867 C1159.0488,237.684601 1152.14457,243.255835 1144.14648,248.177734 C1136.1484,253.099634 1127.43266,257.269514 1117.99902,260.6875 C1098.58486,267.523472 1077.80382,271.078124 1055.65527,271.351562 C1055.1084,273.265635 1054.7666,276.1367 1054.62988,279.964844 C1054.49316,283.792988 1054.90332,288.065406 1055.86035,292.782227 C1056.81739,297.499047 1058.458,301.703107 1060.78223,305.394531 C1065.70413,313.597697 1072.81343,317.699219 1082.11035,317.699219 C1097.96981,317.699219 1113.41887,313.050828 1128.45801,303.753906 C1133.79007,300.609359 1138.13084,297.362321 1141.48047,294.012695 C1144.83009,290.663069 1147.73534,288.988281 1150.19629,288.988281 C1152.65724,288.988281 1154.81054,290.457993 1156.65625,293.397461 C1158.50196,296.336929 1159.4248,299.652325 1159.4248,303.34375 C1159.4248,310.58988 1157.37404,316.87888 1153.27246,322.210938 C1136.04581,339.437586 1110.4113,348.050781 1076.36816,348.050781 C1056.27041,348.050781 1040.13776,342.035216 1027.96973,330.003906 C1014.29778,316.331963 1007.87207,297.738399 1008.69238,274.222656 Z M1128.45801,161.019531 C1114.10247,161.019531 1100.29401,170.863183 1087.03223,190.550781 C1075.82123,207.503991 1066.79789,227.601446 1059.96191,250.84375 C1082.79406,248.51952 1102.61808,239.496172 1119.43457,223.773438 C1134.88387,209.007739 1142.6084,194.85749 1142.6084,181.322266 C1142.6084,167.787042 1137.89165,161.019531 1128.45801,161.019531 Z" id="Foodie"></path>
            </g>
            <path d="M108.28125,35.9238281 C96.7512444,35.9238281 86.224006,37.6783679 76.6992188,41.1875 C67.1744315,44.6966321 58.2764085,50.4615484 50.0048828,58.4824219 C41.7333571,67.0045999 35.3418194,76.6545685 30.8300781,87.4326172 C26.3183368,98.2106659 24.0625,109.48985 24.0625,121.270508 C24.0625,133.051166 26.3183368,144.33035 30.8300781,155.108398 C35.3418194,165.886447 41.7333571,175.411091 50.0048828,183.682617 C53.0127104,186.690445 61.0961256,195.400481 74.2553711,209.812988 C87.4146166,224.225495 101.576259,239.765704 116.740723,256.434082 C131.905186,273.10246 146.129491,288.893317 159.414062,303.807129 C172.698634,318.72094 181.220684,328.182923 184.980469,332.193359 C186.484383,333.446621 187.925612,334.261229 189.304199,334.637207 C190.682787,335.013185 191.873367,335.201172 192.875977,335.201172 C193.627933,335.201172 194.755852,335.013185 196.259766,334.637207 C197.763679,334.261229 199.267571,333.446621 200.771484,332.193359 C215.810622,315.650308 231.288169,298.856856 247.20459,281.8125 C263.121011,264.768144 277.533301,249.227935 290.441895,235.191406 C303.350488,221.154878 314.00305,209.625045 322.399902,200.601562 C330.796754,191.57808 335.245766,186.941082 335.74707,186.69043 C344.018596,178.168252 350.410134,168.518283 354.921875,157.740234 C359.433616,146.962186 361.689453,135.683002 361.689453,123.902344 C361.689453,112.121686 359.433616,100.842502 354.921875,90.0644531 C350.410134,79.2864044 344.018596,69.7617601 335.74707,61.4902344 C326.97424,52.7174041 317.825568,46.2632043 308.300781,42.1274414 C298.775994,37.9916785 288.248756,35.9238281 276.71875,35.9238281 C268.196572,35.9238281 257.982644,39.4329076 246.07666,46.4511719 C234.170676,53.4694361 222.202209,63.1194047 210.170898,75.4013672 L193.251953,92.6962891 L175.957031,75.7773438 C158.662023,58.7329877 144.563043,47.8297764 133.659668,43.0673828 C122.756293,38.3049892 114.296905,35.9238281 108.28125,35.9238281 Z M108.28125,11.8613281 C123.069735,11.8613281 137.795337,16.6236503 152.458496,26.1484375 C167.121655,35.6732247 180.594014,46.4511117 192.875977,58.4824219 C204.656634,46.4511117 218.003669,35.6732247 232.91748,26.1484375 C247.831292,16.6236503 262.431569,11.8613281 276.71875,11.8613281 C291.507235,11.8613281 305.167581,14.5557999 317.700195,19.9448242 C330.23281,25.3338486 341.887967,33.5425881 352.666016,44.5712891 C363.694717,55.3493377 371.966118,67.6937781 377.480469,81.6049805 C382.994819,95.5161828 385.751953,109.615163 385.751953,123.902344 C385.751953,138.189525 382.994819,152.288505 377.480469,166.199707 C371.966118,180.110909 363.694717,192.580674 352.666016,203.609375 C352.415363,203.860027 345.209218,211.56747 331.047363,226.731934 C316.885509,241.896397 301.470624,258.564525 284.802246,276.736816 C268.133868,294.909108 252.844308,311.451911 238.933105,326.365723 L218.066406,348.736328 C214.557274,352.24546 210.60956,354.87727 206.223145,356.631836 C201.836729,358.386402 197.387718,359.263672 192.875977,359.263672 C188.113583,359.263672 183.601909,358.386402 179.34082,356.631836 C175.079731,354.87727 171.194679,352.24546 167.685547,348.736328 L148.322754,327.493652 C135.414161,313.331798 120.939208,297.352954 104.897461,279.556641 C88.8557141,261.760328 73.6288156,244.966876 59.2163086,229.175781 C44.8038016,213.384687 36.093765,203.860042 33.0859375,200.601562 C22.0572365,189.572862 13.7858349,177.165759 8.27148438,163.379883 C2.75713389,149.594007 0,135.495026 0,121.08252 C0,106.670013 2.75713389,92.5710325 8.27148438,78.7851562 C13.7858349,64.99928 22.0572365,52.5921775 33.0859375,41.5634766 C43.6133339,31.0360802 55.2058286,23.453962 67.8637695,18.8168945 C80.5217104,14.1798271 93.9940692,11.8613281 108.28125,11.8613281 Z" id="heart---simple-line-icons" stroke="#CD1EA1" stroke-width="13" fill="#CD1EA1"></path>
        </g>
    </g>
</svg>